<svg viewBox="0 0 84 95" xmlns="http://www.w3.org/2000/svg">
  <path d="M42 5 C28 15 22 30 22 50 V59 H62 V50 C62 30 56 15 42 5 Z" fill="#bef264"/>
  <path d="M22 58.9 V71.9 C22 75.2 24.7 77.9 28 77.9 C31.3 77.9 34 75.2 34 71.9 V58.9 Z" fill="#bef264"/>
  <path d="M36 58.9 V71.9 C36 75.2 38.7 77.9 42 77.9 C45.3 77.9 48 75.2 48 71.9 V58.9 Z" fill="#bef264"/>
  <path d="M50.218 66.970884 V79.77829 C50.218 87.002 55.348 92.213 66.907 92.752 C78.466 92.213 83.948 86.884 83.948 78.66 C83.948 75.694 82.363 73.873 78.317 73.873 C74.272 73.873 72.761 75.93 72.568 78.626 C72.376 81.862 70.395 82.977 67.408 82.977 C64.539 82.977 61.97 81.609 61.97 78.778 V58.882 H50.218 Z" fill="#bef264"/>
  <circle cx="30" cy="40" r="5" fill="#000"/>
  <circle cx="54" cy="40" r="5" fill="#000"/>
</svg>
